<svg width="256" height="256" viewBox="0 0 256 256" fill="none" xmlns="http://www.w3.org/2000/svg">
<g clip-path="url(#clip0_113_313)">
<rect width="256" height="256" rx="40" fill="#470137"/>
<path d="M134.578 67.3239L102.635 121.398L136.81 178.819C137.03 179.22 137.091 179.693 136.982 180.139C136.929 180.33 136.815 180.377 136.64 180.384L136.446 180.381L136.21 180.375C136.082 180.374 135.939 180.381 135.78 180.408L111.141 180.407L110.656 180.4C109.328 180.364 108.371 180.169 107.788 179.171C105.496 174.591 103.206 170.041 100.918 165.52C98.9131 161.566 96.7998 157.543 94.5784 153.451L93.6198 151.693C91.0438 146.998 88.4964 142.243 85.9776 137.426H85.8057C83.5141 142.124 81.1384 146.821 78.6787 151.517C76.2156 156.215 73.7828 160.883 71.3802 165.52C68.9761 170.16 66.5146 174.769 63.9959 179.347C63.591 180.279 62.9185 180.474 61.9805 180.507L61.5912 180.513H38.0641L37.9623 180.516L37.6257 180.547C37.439 180.558 37.3274 180.517 37.2912 180.227C37.2266 179.798 37.3183 179.359 37.549 178.994L70.6933 123.159L38.4073 67.1476C38.0641 66.6799 38.0068 66.2983 38.2354 66.0028C38.4925 65.6981 38.8742 65.535 39.2662 65.5624H63.4802C64.0082 65.5329 64.5361 65.6228 65.0261 65.8268C65.4367 66.0654 65.789 66.3967 66.0563 66.7956C68.1172 71.4932 70.407 76.1901 72.9256 80.8864C75.4427 85.5843 77.9901 90.2225 80.5677 94.8012C83.1438 99.3807 85.5195 104.019 87.6948 108.716H87.8667C90.1552 103.902 92.4736 99.2055 94.8219 94.6252C97.1672 90.0456 99.5714 85.4366 102.034 80.7982C104.495 76.161 106.871 71.5521 109.161 66.9716C109.293 66.5369 109.529 66.1432 109.848 65.8268C110.272 65.606 110.749 65.5143 111.222 65.5624H133.719C134.166 65.4493 134.63 65.6688 134.835 66.0909C135.022 66.4747 134.951 66.9328 134.669 67.2373L134.578 67.3239ZM185.048 182.68L183.864 182.694C175.959 182.817 168.127 181.132 160.937 177.762C154.239 174.582 148.64 169.392 144.88 162.878C141.089 156.42 139.143 148.374 139.045 138.739L139.041 137.955C138.977 129.871 140.991 121.912 144.88 114.881C148.776 107.918 154.453 102.185 161.293 98.3001L161.882 97.9716C169.322 93.7443 178.31 91.6307 188.844 91.6308L189.305 91.6363L189.83 91.6528L190.421 91.6803L191.076 91.7189L192.178 91.7985L193.426 91.9014L194.339 91.9831V57.2841C194.339 56.4639 194.683 56.0512 195.37 56.0512H217.008C217.292 56.0096 217.578 56.1074 217.781 56.3152C217.983 56.5231 218.079 56.8167 218.039 57.1078V161.205C218.039 162.953 218.104 164.835 218.236 166.85L218.556 171.42L218.726 174.063C218.769 174.811 218.359 175.511 217.695 175.824C212.113 178.212 206.298 179.983 200.35 181.108C195.3 182.064 190.182 182.59 185.048 182.68ZM194.339 160.852V112.767C193.411 112.509 192.463 112.333 191.506 112.239C190.336 112.118 189.161 112.059 187.985 112.063C183.818 112.02 179.699 112.986 175.964 114.881C172.325 116.736 169.219 119.528 166.948 122.983C164.681 126.384 163.509 130.825 163.431 136.307L163.427 136.898C163.344 140.737 163.955 144.56 165.23 148.171C166.268 151.08 167.909 153.724 170.039 155.921C172.078 157.941 174.547 159.449 177.252 160.324C180.108 161.273 183.094 161.748 186.096 161.734C187.698 161.734 189.186 161.674 190.561 161.557C191.658 161.472 192.745 161.287 193.809 161.003L194.339 160.852Z" fill="#FF61F6"/>
</g>
<defs>
<clipPath id="clip0_113_313">
<rect width="256" height="256" fill="white"/>
</clipPath>
</defs>
</svg>
