<svg width="256" height="250" viewBox="0 0 256 250" fill="none" xmlns="http://www.w3.org/2000/svg">
<g clip-path="url(#clip0_113_307)">
<rect width="256" height="256" rx="40" fill="#330000"/>
<path d="M124.054 153.631H84.3834L76.3121 179.347C76.0852 180.314 75.2201 180.98 74.2511 180.932H54.1584C53.0126 180.932 52.6119 180.286 52.9563 178.995L87.3027 77.5396C87.6465 76.483 87.99 75.2794 88.3334 73.9288C88.7827 71.5788 89.0127 69.1903 89.0204 66.7955C88.9731 66.4559 89.0845 66.1134 89.321 65.8708C89.5574 65.6282 89.8914 65.514 90.2225 65.5623H117.528C118.328 65.5623 118.786 65.856 118.902 66.4432L157.886 179.171C158.229 180.346 157.885 180.933 156.855 180.932H134.529C133.736 181.022 133.001 180.494 132.812 179.699L124.054 153.631ZM90.5657 131.438H117.7L117.314 130.128L116.692 128.054L116.249 126.598L115.542 124.305L114.039 119.477L112.717 115.196L109.285 104.048C108.401 101.18 107.581 98.3976 106.824 95.7015L106.196 93.4356L105.462 90.7548L104.342 86.6016C104.271 86.3379 104.202 86.0767 104.133 85.8182H103.961C103.102 90.0466 102.055 94.2325 100.825 98.3628L98.2768 106.768L96.875 111.412L95.46 116.114C95.2045 116.963 94.9497 117.803 94.6955 118.632L93.9352 121.093L93.1791 123.494L92.4272 125.837L91.6795 128.121C91.4309 128.873 91.1831 129.615 90.9359 130.347L90.5657 131.438ZM181.067 84.233C177.525 84.3789 174.089 82.9695 171.622 80.358C169.165 77.6371 167.867 74.0237 168.015 70.3182C167.889 66.6443 169.294 63.0891 171.879 60.5426C174.348 58.1125 177.632 56.7575 181.044 56.7512L181.411 56.7557C185.532 56.7557 188.767 58.018 191.114 60.5426C193.506 63.1923 194.773 66.7095 194.634 70.3182C194.779 74.0394 193.447 77.662 190.942 80.358C188.409 82.9184 184.979 84.3166 181.434 84.2456L181.067 84.233ZM169.217 179.171V94.9771C169.217 93.9205 169.674 93.3919 170.591 93.3919H191.715C192.63 93.3919 193.088 93.9203 193.089 94.9771V179.171C193.089 180.346 192.631 180.933 191.715 180.932H170.763C169.787 180.932 169.273 180.405 169.222 179.351L169.217 179.171Z" fill="#FF9A00"/>
</g>
<defs>
<clipPath id="clip0_113_307">
<rect width="256" height="250" fill="white"/>
</clipPath>
</defs>
</svg>
