<svg width="256" height="294" viewBox="0 0 256 294" fill="none" xmlns="http://www.w3.org/2000/svg">
<path d="M130.517 292.347C128.768 292.832 126.92 292.831 125.171 292.346L30.3324 266.018C26.3191 264.904 23.4167 261.419 23.0468 257.271L1.41581 14.6538C0.894229 8.80358 5.50291 3.76572 11.3763 3.76572H244.622C250.496 3.76572 255.105 8.80428 254.583 14.6548L232.929 257.228C232.559 261.377 229.655 264.863 225.64 265.975L130.517 292.347Z" fill="#264DE4"/>
<path d="M208.413 248.657C210.822 247.989 212.564 245.898 212.786 243.408L231.695 31.5908C232.008 28.0805 229.243 25.0573 225.718 25.0573H128V270.95L208.413 248.657Z" fill="#2965F1"/>
<path d="M53.6685 121.636L56.5309 153.573H128V121.636H53.6685Z" fill="#EBEBEB"/>
<path d="M47.917 56.9948L50.8202 88.9322H128V56.9948H47.917Z" fill="#EBEBEB"/>
<path d="M128 204.58L127.86 204.617L92.2913 195.013L90.0175 169.542H57.9578L62.4321 219.688L127.853 237.849L128 237.808V204.58Z" fill="#EBEBEB"/>
<path d="M202.127 121.636L207.892 56.9948H127.889V88.9322H172.892L169.986 121.636H127.889V153.573H167.216L163.509 194.993L127.889 204.607V237.833L193.362 219.688L193.842 214.292L201.347 130.212L202.127 121.636Z" fill="white"/>
</svg>
