<svg width="256" height="294" viewBox="0 0 256 294" fill="none" xmlns="http://www.w3.org/2000/svg">
<path d="M84.75 276.5C108.624 276.5 128 257.161 128 233.333V190.167H84.75C60.876 190.167 41.5 209.505 41.5 233.333C41.5 257.161 60.876 276.5 84.75 276.5Z" fill="#0ACF83"/>
<path d="M41.5 147C41.5 123.172 60.876 103.833 84.75 103.833H128V190.167H84.75C60.876 190.167 41.5 170.828 41.5 147Z" fill="#A259FF"/>
<path d="M41.5 60.6667C41.5 36.8387 60.876 17.5 84.75 17.5H128V103.833H84.75C60.876 103.833 41.5 84.4947 41.5 60.6667Z" fill="#F24E1E"/>
<path d="M128 17.5H171.25C195.124 17.5 214.5 36.8387 214.5 60.6667C214.5 84.4947 195.124 103.833 171.25 103.833H128V17.5Z" fill="#FF7262"/>
<path d="M214.5 147C214.5 170.828 195.124 190.167 171.25 190.167C147.376 190.167 128 170.828 128 147C128 123.172 147.376 103.833 171.25 103.833C195.124 103.833 214.5 123.172 214.5 147Z" fill="#1ABCFE"/>
</svg>
