<svg width="256" height="293" viewBox="0 0 256 293" fill="none" xmlns="http://www.w3.org/2000/svg">
<path d="M244.623 2.76575C250.496 2.76575 255.105 7.8043 254.583 13.6549L232.93 256.228C232.559 260.377 229.655 263.862 225.641 264.975L130.517 291.347C128.768 291.832 126.92 291.832 125.171 291.346L30.3324 265.018C26.3191 263.904 23.4167 260.419 23.0468 256.27L1.41582 13.6538C0.89423 7.80362 5.50291 2.76575 11.3763 2.76575H244.623Z" fill="#E44D26"/>
<path d="M128 269.95L208.413 247.657C210.822 246.989 212.564 244.898 212.786 242.409L231.695 30.5908C232.008 27.0805 229.243 24.0573 225.719 24.0573H128V269.95Z" fill="#F16529"/>
<path d="M82.8202 87.9322H128V55.9948H47.917L48.6815 64.563L56.531 152.573H128V120.636H85.7389L82.8202 87.9322Z" fill="#EBEBEB"/>
<path d="M90.0175 168.542H57.9578L62.4321 218.688L127.853 236.849L128 236.808V203.58L127.86 203.617L92.2913 194.013L90.0175 168.542Z" fill="#EBEBEB"/>
<path d="M127.889 152.573H167.216L163.509 193.993L127.889 203.607V236.833L193.362 218.688L193.842 213.292L201.347 129.212L202.127 120.636H127.889V152.573Z" fill="white"/>
<path d="M127.889 87.8541V87.9322H205.033L205.673 80.7536L207.128 64.563L207.892 55.9948H127.889V87.8541Z" fill="white"/>
</svg>
