<svg width="69" height="19" viewBox="0 0 69 19" fill="none" xmlns="http://www.w3.org/2000/svg">
<g clip-path="url(#clip0_17_2)">
<path d="M2.52 1.42012V10.8501L7 6.00012C7.18761 5.78369 7.41951 5.61008 7.68002 5.49104C7.94054 5.372 8.22358 5.3103 8.51 5.31012H10.7L5.11 11.4001L11.11 17.7901H8.86C8.57643 17.7965 8.29509 17.7387 8.03706 17.6209C7.77902 17.5031 7.55097 17.3285 7.37 17.1101L2.52 12.0001V16.5601C2.52557 16.7258 2.49705 16.8908 2.43621 17.045C2.37536 17.1992 2.28349 17.3392 2.16628 17.4564C2.04908 17.5736 1.90905 17.6655 1.75487 17.7263C1.60069 17.7872 1.43566 17.8157 1.27 17.8101H0V0.170118H1.27C1.43566 0.164545 1.60069 0.193066 1.75487 0.253912C1.90905 0.314758 2.04908 0.406631 2.16628 0.523834C2.28349 0.641037 2.37536 0.78107 2.43621 0.935248C2.49705 1.08943 2.52557 1.25446 2.52 1.42012Z" fill="#AF99F3"/>
<path d="M17.0001 5.0001C20.6701 5.0001 23.0001 7.3701 23.0001 11.5701C23.0001 11.8901 23.0001 12.2201 23.0001 12.4901H13.2101C13.3501 14.3601 15.0101 15.8701 17.5301 15.8701C18.463 15.8779 19.3847 15.6655 20.2201 15.2501C20.4796 15.0904 20.787 15.0269 21.0886 15.0707C21.3902 15.1146 21.6668 15.263 21.8701 15.4901L22.4501 16.0901C21.786 16.746 20.9915 17.2549 20.1181 17.5839C19.2446 17.913 18.3118 18.0548 17.3801 18.0001C13.1401 18.0001 10.6201 15.3101 10.6201 11.5201C10.5677 10.6622 10.6957 9.80278 10.9959 8.99738C11.2962 8.19198 11.7619 7.45844 12.363 6.8441C12.9642 6.22976 13.6874 5.74825 14.4861 5.43064C15.2848 5.11303 16.1412 4.96636 17.0001 5.0001ZM13.2101 10.6601H20.3901C20.2901 8.5701 19.2301 7.1301 16.9801 7.1301C16.4977 7.10864 16.016 7.18416 15.5633 7.35219C15.1107 7.52022 14.6963 7.77735 14.3448 8.10835C13.9933 8.43935 13.7118 8.8375 13.5168 9.27924C13.3219 9.72098 13.2176 10.1973 13.2101 10.6801V10.6601Z" fill="#AF99F3"/>
<path d="M25 16.54V5.25996H26.25C26.4156 5.25439 26.5806 5.28291 26.7348 5.34376C26.889 5.4046 27.029 5.49647 27.1462 5.61368C27.2634 5.73088 27.3553 5.87091 27.4162 6.02509C27.477 6.17927 27.5055 6.34431 27.5 6.50996V17.79H26.25C26.0843 17.7955 25.9193 17.767 25.7651 17.7062C25.6109 17.6453 25.4709 17.5534 25.3537 17.4362C25.2365 17.319 25.1446 17.179 25.0837 17.0248C25.0229 16.8707 24.9944 16.7056 25 16.54Z" fill="#AF99F3"/>
<path d="M29.6001 0.219971H30.5401L38.5401 10.22L46.5401 0.219971H47.4701V17.79H46.1601C45.961 17.8032 45.7614 17.7738 45.5746 17.7036C45.3878 17.6334 45.2181 17.5241 45.077 17.383C44.9359 17.2419 44.8266 17.0723 44.7565 16.8855C44.6863 16.6987 44.6568 16.4991 44.6701 16.3V6.29997L38.5001 14.3L32.3601 6.33997V16.34C32.3734 16.5391 32.3439 16.7387 32.2737 16.9255C32.2036 17.1123 32.0942 17.2819 31.9531 17.423C31.812 17.5641 31.6424 17.6734 31.4556 17.7436C31.2688 17.8138 31.0692 17.8432 30.8701 17.83H29.6001V0.219971Z" fill="#AF99F3"/>
<path d="M49.54 7.63V5.33V3.79C49.54 1.46 50.79 0 53.14 0C54.2738 0.00155311 55.3671 0.421768 56.21 1.18L55.83 1.92C55.6936 2.15198 55.4754 2.32466 55.2183 2.4042C54.9612 2.48374 54.6836 2.46441 54.44 2.35C54.1317 2.18836 53.7881 2.10588 53.44 2.11C52.57 2.11 52.02 2.69 52.02 3.96V5.33H55.02V6.33C55.0256 6.49566 54.9971 6.66069 54.9362 6.81487C54.8754 6.96905 54.7835 7.10908 54.6663 7.22628C54.5491 7.34349 54.4091 7.43536 54.2549 7.49621C54.1007 7.55705 53.9357 7.58557 53.77 7.58H52.08V16.46C52.0856 16.6257 52.0571 16.7907 51.9962 16.9449C51.9354 17.099 51.8435 17.2391 51.7263 17.3563C51.6091 17.4735 51.4691 17.5654 51.3149 17.6262C51.1607 17.6871 50.9957 17.7156 50.83 17.71H49.54V7.63Z" fill="#AF99F3"/>
<path d="M58.5499 5.8199C59.4935 5.18667 60.6077 4.85606 61.744 4.87214C62.8802 4.88822 63.9846 5.25022 64.9099 5.9099L64.3099 6.9099C64.1742 7.15753 63.9548 7.34882 63.691 7.44957C63.4272 7.55033 63.1362 7.55399 62.8699 7.4599C62.3493 7.27979 61.7947 7.21951 61.2476 7.28358C60.7005 7.34764 60.1748 7.53439 59.7099 7.8299C59.2476 8.10765 58.8462 8.47602 58.5299 8.91287C58.2136 9.34972 57.9889 9.84603 57.8693 10.3719C57.7498 10.8979 57.7378 11.4425 57.8341 11.9732C57.9305 12.5039 58.1331 13.0096 58.4299 13.4599C58.663 13.9415 58.9931 14.3697 59.3996 14.7176C59.8061 15.0655 60.2801 15.3256 60.792 15.4815C61.3038 15.6374 61.8423 15.6857 62.3737 15.6235C62.9051 15.5613 63.4179 15.3898 63.8799 15.1199C64.3618 14.8483 64.7822 14.4796 65.1144 14.0373C65.4466 13.5949 65.6834 13.0885 65.8099 12.5499C65.8708 12.2812 66.0245 12.0426 66.244 11.8762C66.4635 11.7097 66.7348 11.626 67.0099 11.6399H68.1799C68.4199 13.6399 67.5099 15.7299 65.0299 17.1499C64.2994 17.5924 63.4866 17.8817 62.6409 18.0003C61.7951 18.1189 60.9341 18.0643 60.1101 17.8398C59.2861 17.6154 58.5163 17.2257 57.8475 16.6945C57.1788 16.1633 56.625 15.5017 56.2199 14.7499C55.768 14.0156 55.4694 13.1973 55.342 12.3445C55.2147 11.4917 55.2613 10.6219 55.479 9.78761C55.6967 8.95328 56.081 8.17163 56.6087 7.48975C57.1365 6.80786 57.7968 6.23985 58.5499 5.8199Z" fill="#AF99F3"/>
</g>
<defs>
<clipPath id="clip0_17_2">
<rect width="68.22" height="18.03" fill="white"/>
</clipPath>
</defs>
</svg>
